# xmcd
#
# Track frame offsets: 
#        150
#        20812
#        34012
#        47060
#        63335
#        82605
#        101535
#        132805
#        147727
#        159970
#        175460
#        184302
#        197595
#        215082
#
# Disc length: 3125 seconds
#
# Revision: 11
# Processed by: cddbd v1.5.2PL0 Copyright (c) Steve Scherf et al.
# Submitted via: ExactAudioCopy v1.0b3
#
DISCID=c50c330e
DTITLE=THE BLUE HEARTS - BUST WASTE HIP
DYEAR=1990
DGENRE=JPop
TTITLE0=イメージ
TTITLE1=殺しのライセンス
TTITLE2=首つり台から
TTITLE3=脳天気
TTITLE4=夜の中を
TTITLE5=悲しいうわさ
TTITLE6=Hのブルース
TTITLE7=夢の駅
TTITLE8=恋のゲーム
TTITLE9=スピード
TTITLE10=キューティパイ
TTITLE11=情熱の薔薇
TTITLE12=真夜中のテレフォン
TTITLE13=ナビゲーター
EXTD=YEAR: 1990
EXTT0=
EXTT1=
EXTT2=
EXTT3=
EXTT4=
EXTT5=
EXTT6=
EXTT7=
EXTT8=
EXTT9=
EXTT10=
EXTT11=
EXTT12=
EXTT13=
PLAYORDER=
